<svg width="325" height="100" viewBox="0 0 325 100" fill="none" xmlns="http://www.w3.org/2000/svg">
<rect x="20" y="18" width="64" height="64" rx="16" fill="url(#paint0_linear_320_30)"/>
<path d="M32.3602 31.206L31.8204 32.6055H31.8204L32.3602 31.206ZM71.64 31.206L71.1002 29.8065V29.8065L71.64 31.206ZM52.0001 38.7814L51.4603 40.1809C51.8077 40.3149 52.1926 40.3149 52.54 40.1809L52.0001 38.7814ZM32.5004 32.139C32.5004 32.4901 32.148 32.7318 31.8204 32.6055L32.9 29.8065C31.2622 29.1748 29.5004 30.3835 29.5004 32.139H32.5004ZM32.5004 53.05V32.139H29.5004V53.05H32.5004ZM52.0001 72.5498C41.2307 72.5498 32.5004 63.8194 32.5004 53.05H29.5004C29.5004 65.4763 39.5739 75.5498 52.0001 75.5498V72.5498ZM71.4999 53.05C71.4999 63.8194 62.7696 72.5498 52.0001 72.5498V75.5498C64.4264 75.5498 74.4999 65.4763 74.4999 53.05H71.4999ZM71.4999 32.139V53.05H74.4999V32.139H71.4999ZM72.1799 32.6055C71.8523 32.7318 71.4999 32.4901 71.4999 32.139H74.4999C74.4999 30.3835 72.7381 29.1748 71.1002 29.8065L72.1799 32.6055ZM52.54 40.1809L72.1799 32.6055L71.1002 29.8065L51.4603 37.3819L52.54 40.1809ZM31.8204 32.6055L51.4603 40.1809L52.54 37.3819L32.9 29.8065L31.8204 32.6055Z" fill="#E1E8F8"/>
<path fill-rule="evenodd" clip-rule="evenodd" d="M55.2286 44.8831C55.0212 45.521 54.9091 46.2019 54.9091 46.909C54.9091 50.524 57.8396 53.4545 61.4545 53.4545C65.0695 53.4545 68 50.524 68 46.909C68 44.4778 66.6744 42.3561 64.7066 41.2273L55.2286 44.8831ZM39.2935 41.2273L48.7713 44.883C48.9788 45.521 49.0909 46.2019 49.0909 46.909C49.0909 50.524 46.1604 53.4545 42.5455 53.4545C38.9305 53.4545 36 50.524 36 46.909C36 44.4777 37.3256 42.3561 39.2935 41.2273ZM42.8285 48.1716L46.4614 46.9606C45.9547 45.4397 44.5196 44.3432 42.8284 44.3432C40.714 44.3432 39 46.0572 39 48.1716C39 50.286 40.714 52 42.8284 52C44.5196 52 45.9547 50.9034 46.4614 49.3825L42.8285 48.1716ZM65 46.892L61.5917 48.0281L65 49.1642C64.5246 50.591 63.1783 51.6198 61.5917 51.6198C59.6081 51.6198 58 50.0117 58 48.0281C58 46.0444 59.6081 44.4364 61.5917 44.4364C63.1783 44.4364 64.5246 45.4651 65 46.892Z" fill="#E1E8F8"/>
<path fill-rule="evenodd" clip-rule="evenodd" d="M52.1021 48.3035L52 48.2181L51.8979 48.3036C51.3319 52.1319 48.4713 55.2127 44.7587 56.1031L52 67.5L59.2413 56.1031C55.5287 55.2126 52.6681 52.1318 52.1021 48.3035Z" fill="#E1E8F8"/>
<path d="M121.656 62.75C121.656 63.0625 121.604 63.375 121.5 63.6875C121.417 63.9792 121.323 64.2708 121.219 64.5625C120.76 65.75 120.198 66.8542 119.531 67.875C118.865 68.875 118.094 69.7396 117.219 70.4688C116.344 71.1979 115.354 71.7708 114.25 72.1875C113.146 72.6042 111.927 72.8125 110.594 72.8125C108.823 72.8125 107.302 72.4375 106.031 71.6875C104.76 70.9375 103.677 69.9688 102.781 68.7812C101.885 67.5729 101.146 66.2292 100.562 64.75C100 63.2708 99.5521 61.7917 99.2188 60.3125C98.7188 58.1667 98.3333 56.0208 98.0625 53.875C97.7917 51.7083 97.6562 49.5417 97.6562 47.375C97.6562 46.1042 97.7083 44.7917 97.8125 43.4375C97.9375 42.0833 98.1458 40.75 98.4375 39.4375C98.7292 38.1042 99.125 36.8229 99.625 35.5938C100.125 34.3438 100.75 33.1979 101.5 32.1562C102.25 31.0938 103.135 30.1562 104.156 29.3438C105.198 28.5312 106.406 27.8958 107.781 27.4375C108.281 27.25 108.802 27.125 109.344 27.0625C109.885 26.9792 110.427 26.9375 110.969 26.9375C112.052 26.9375 113.083 27.1146 114.062 27.4688C115.042 27.8229 115.896 28.3229 116.625 28.9688C117.375 29.6146 117.958 30.3958 118.375 31.3125C118.812 32.2292 119.031 33.25 119.031 34.375C119.031 34.75 118.948 35.0312 118.781 35.2188C118.615 35.4062 118.323 35.5 117.906 35.5C117.135 35.5 116.531 35.375 116.094 35.125C115.677 34.875 115.333 34.5625 115.062 34.1875C114.792 33.8125 114.562 33.4062 114.375 32.9688C114.208 32.5312 114 32.125 113.75 31.75C113.5 31.375 113.167 31.0625 112.75 30.8125C112.333 30.5625 111.76 30.4375 111.031 30.4375C110.302 30.4375 109.615 30.5833 108.969 30.875C108.344 31.1458 107.76 31.5104 107.219 31.9688C106.698 32.4271 106.219 32.9479 105.781 33.5312C105.365 34.0938 104.99 34.6667 104.656 35.25C103.781 36.875 103.167 38.6146 102.812 40.4688C102.458 42.3021 102.281 44.1458 102.281 46C102.281 46.625 102.302 47.4375 102.344 48.4375C102.406 49.4167 102.49 50.5 102.594 51.6875C102.719 52.875 102.885 54.1354 103.094 55.4688C103.302 56.7812 103.552 58.0729 103.844 59.3438C104.156 60.6146 104.521 61.8333 104.938 63C105.375 64.1667 105.865 65.1875 106.406 66.0625C106.969 66.9375 107.594 67.6354 108.281 68.1562C108.99 68.6771 109.781 68.9375 110.656 68.9375C111.552 68.9375 112.344 68.7083 113.031 68.25C113.719 67.7708 114.302 67.1771 114.781 66.4688C115.281 65.7396 115.688 64.9583 116 64.125C116.333 63.2708 116.594 62.4792 116.781 61.75C116.844 61.5417 116.896 61.3542 116.938 61.1875C117 61.0208 117.073 60.875 117.156 60.75C117.26 60.625 117.385 60.5312 117.531 60.4688C117.677 60.4062 117.885 60.375 118.156 60.375C118.448 60.375 118.792 60.4375 119.188 60.5625C119.604 60.6667 119.99 60.8229 120.344 61.0312C120.719 61.2396 121.031 61.4896 121.281 61.7812C121.531 62.0729 121.656 62.3958 121.656 62.75ZM144.484 48C144.484 48.875 144.463 49.8958 144.421 51.0625C144.4 52.2083 144.327 53.4375 144.202 54.75C144.098 56.0625 143.932 57.4062 143.702 58.7812C143.494 60.1562 143.213 61.5 142.859 62.8125C142.505 64.125 142.067 65.3646 141.546 66.5312C141.025 67.6979 140.4 68.7188 139.671 69.5938C138.942 70.4688 138.098 71.1667 137.14 71.6875C136.182 72.1875 135.088 72.4375 133.859 72.4375C132.63 72.4375 131.515 72.1562 130.515 71.5938C129.515 71.0104 128.671 70.25 127.984 69.3125C127.421 68.5625 126.921 67.6458 126.484 66.5625C126.067 65.4583 125.692 64.2604 125.359 62.9688C125.046 61.6771 124.775 60.3333 124.546 58.9375C124.317 57.5417 124.13 56.1667 123.984 54.8125C123.859 53.4583 123.765 52.1771 123.702 50.9688C123.64 49.7396 123.609 48.6667 123.609 47.75C123.609 46.2083 123.671 44.5938 123.796 42.9062C123.942 41.2188 124.202 39.5521 124.577 37.9062C124.952 36.2396 125.463 34.6354 126.109 33.0938C126.755 31.5521 127.588 30.1667 128.609 28.9375C128.713 28.8125 128.838 28.6667 128.984 28.5C129.15 28.3333 129.327 28.1771 129.515 28.0312C129.702 27.8646 129.89 27.7292 130.077 27.625C130.286 27.5 130.484 27.4375 130.671 27.4375C130.859 27.4375 131.036 27.4896 131.202 27.5938C131.39 27.6979 131.546 27.8333 131.671 28C132.109 27.75 132.567 27.5729 133.046 27.4688C133.546 27.3646 134.046 27.3125 134.546 27.3125C136.067 27.3125 137.369 27.6771 138.452 28.4062C139.557 29.1146 140.473 30.0521 141.202 31.2188C141.932 32.3854 142.515 33.7083 142.952 35.1875C143.39 36.6667 143.723 38.1771 143.952 39.7188C144.182 41.2604 144.327 42.75 144.39 44.1875C144.452 45.625 144.484 46.8958 144.484 48ZM139.609 49.375C139.609 48.8333 139.588 48.0104 139.546 46.9062C139.525 45.7812 139.452 44.5521 139.327 43.2188C139.202 41.8646 139.025 40.4792 138.796 39.0625C138.588 37.6458 138.296 36.3646 137.921 35.2188C137.546 34.0521 137.077 33.1042 136.515 32.375C135.973 31.625 135.317 31.25 134.546 31.25C134.234 31.25 133.952 31.3958 133.702 31.6875C133.452 31.9792 133.213 32.3542 132.984 32.8125C132.755 33.2708 132.546 33.7708 132.359 34.3125C132.171 34.8542 131.984 35.375 131.796 35.875C131.609 36.375 131.432 36.8229 131.265 37.2188C131.098 37.6146 130.921 37.8958 130.734 38.0625C130.671 38.125 130.567 38.1667 130.421 38.1875C130.296 38.1875 130.171 38.1875 130.046 38.1875C129.692 38.1875 129.359 38.125 129.046 38C128.692 39.4167 128.442 40.8333 128.296 42.25C128.171 43.6458 128.109 45.0625 128.109 46.5C128.109 46.9375 128.13 47.5938 128.171 48.4688C128.213 49.3438 128.275 50.3438 128.359 51.4688C128.442 52.5938 128.557 53.8021 128.702 55.0938C128.848 56.3854 129.025 57.6771 129.234 58.9688C129.442 60.2396 129.682 61.4688 129.952 62.6562C130.244 63.8229 130.577 64.8646 130.952 65.7812C131.327 66.6771 131.744 67.3958 132.202 67.9375C132.661 68.4792 133.171 68.75 133.734 68.75C134.046 68.75 134.327 68.6667 134.577 68.5C134.827 68.3125 135.067 68.125 135.296 67.9375C135.921 67.375 136.463 66.6354 136.921 65.7188C137.38 64.8021 137.765 63.7917 138.077 62.6875C138.39 61.5833 138.65 60.4271 138.859 59.2188C139.067 57.9896 139.223 56.7812 139.327 55.5938C139.432 54.4062 139.505 53.2812 139.546 52.2188C139.588 51.1354 139.609 50.1875 139.609 49.375ZM171.186 49.625C171.186 51.8542 170.988 54.0521 170.592 56.2188C170.197 58.3646 169.54 60.375 168.624 62.25C167.728 64.125 166.54 65.8333 165.061 67.375C163.582 68.8958 161.77 70.1458 159.624 71.125C159.082 71.375 158.488 71.6042 157.842 71.8125C157.217 72.0208 156.561 72.1979 155.874 72.3438C155.207 72.4896 154.54 72.6042 153.874 72.6875C153.207 72.7708 152.582 72.8125 151.999 72.8125C151.77 72.8125 151.509 72.8021 151.217 72.7812C150.947 72.7812 150.686 72.7396 150.436 72.6562C150.186 72.5938 149.978 72.4792 149.811 72.3125C149.645 72.1458 149.561 71.9167 149.561 71.625C149.561 71.375 149.613 71.1146 149.717 70.8438C149.822 70.5729 149.957 70.3125 150.124 70.0625C150.311 69.8125 150.509 69.5938 150.717 69.4062C150.926 69.1979 151.145 69.0417 151.374 68.9375C151.27 68.7708 151.165 68.3021 151.061 67.5312C150.978 66.7604 150.895 65.7812 150.811 64.5938C150.749 63.4062 150.686 62.0833 150.624 60.625C150.561 59.1458 150.499 57.625 150.436 56.0625C150.395 54.5 150.353 52.9479 150.311 51.4062C150.29 49.8438 150.27 48.4062 150.249 47.0938C150.228 45.7812 150.207 44.6458 150.186 43.6875C150.186 42.7083 150.186 42 150.186 41.5625C150.186 39.6042 150.217 37.6771 150.28 35.7812C150.342 33.8854 150.374 31.9583 150.374 30C150.145 30 149.926 29.9375 149.717 29.8125C149.53 29.6875 149.436 29.5 149.436 29.25C149.436 28.9167 149.52 28.6146 149.686 28.3438C149.853 28.0521 150.061 27.8021 150.311 27.5938C150.582 27.3854 150.874 27.2292 151.186 27.125C151.52 27 151.832 26.9375 152.124 26.9375C152.415 26.9375 152.697 26.9688 152.967 27.0312C153.238 27.0729 153.52 27.125 153.811 27.1875C156.582 27.8542 159.051 28.8646 161.217 30.2188C163.384 31.5729 165.197 33.2188 166.655 35.1562C168.134 37.0938 169.259 39.2812 170.03 41.7188C170.801 44.1562 171.186 46.7917 171.186 49.625ZM166.561 49.0625C166.561 46.9792 166.311 45.0208 165.811 43.1875C165.311 41.3333 164.561 39.6458 163.561 38.125C162.582 36.5833 161.342 35.2292 159.842 34.0625C158.363 32.875 156.645 31.8958 154.686 31.125V31.25C154.686 36.625 154.77 41.9583 154.936 47.25C155.124 52.5208 155.395 57.8333 155.749 63.1875C155.811 64 155.863 64.8125 155.905 65.625C155.967 66.4167 156.061 67.2083 156.186 68C158.145 67.3542 159.79 66.3542 161.124 65C162.457 63.6458 163.52 62.1042 164.311 60.375C165.124 58.625 165.697 56.7708 166.03 54.8125C166.384 52.8333 166.561 50.9167 166.561 49.0625ZM196.67 65.1875C196.67 65.5417 196.524 65.8854 196.232 66.2188C195.962 66.5521 195.628 66.875 195.232 67.1875C194.837 67.5 194.43 67.7917 194.014 68.0625C193.597 68.3125 193.253 68.5208 192.982 68.6875C192.274 69.1458 191.566 69.5729 190.857 69.9688C190.17 70.3646 189.451 70.7083 188.701 71C187.972 71.2917 187.212 71.5208 186.42 71.6875C185.649 71.8542 184.837 71.9375 183.982 71.9375L183.482 72C182.795 72 182.107 71.9271 181.42 71.7812C180.753 71.6146 180.128 71.375 179.545 71.0625C178.962 70.7292 178.441 70.3125 177.982 69.8125C177.524 69.3125 177.17 68.7083 176.92 68C176.732 67.4375 176.587 66.7708 176.482 66C176.378 65.2292 176.295 64.4271 176.232 63.5938C176.191 62.7604 176.149 61.9479 176.107 61.1562C176.087 60.3438 176.066 59.625 176.045 59C175.732 52.625 175.482 46.25 175.295 39.875C175.253 39.1458 175.222 38.4167 175.201 37.6875C175.18 36.9583 175.17 36.2292 175.17 35.5C175.17 34.25 175.243 33.1875 175.389 32.3125C175.535 31.4375 175.826 30.7188 176.264 30.1562C176.701 29.5938 177.326 29.1875 178.139 28.9375C178.972 28.6875 180.066 28.5625 181.42 28.5625C182.774 28.5625 184.128 28.5729 185.482 28.5938C186.857 28.6146 188.232 28.625 189.607 28.625C190.024 28.625 190.441 28.6146 190.857 28.5938C191.274 28.5521 191.691 28.5833 192.107 28.6875C192.357 28.7292 192.576 28.8021 192.764 28.9062C192.951 28.9896 193.045 29.1875 193.045 29.5C193.045 30.25 192.795 30.8125 192.295 31.1875C191.795 31.5417 191.201 31.7812 190.514 31.9062C189.826 32.0312 189.107 32.0938 188.357 32.0938C187.628 32.0729 187.024 32.0625 186.545 32.0625H182.482C182.066 32.0625 181.649 32.0625 181.232 32.0625C180.816 32.0625 180.399 32.0833 179.982 32.125C179.857 32.4375 179.774 32.7604 179.732 33.0938C179.691 33.4271 179.67 33.7708 179.67 34.125C179.67 36.3958 179.722 38.6354 179.826 40.8438C179.951 43.0521 180.066 45.2917 180.17 47.5625C181.462 47.4583 182.743 47.3333 184.014 47.1875C185.285 47.0417 186.566 46.875 187.857 46.6875C188.045 46.6875 188.212 46.6771 188.357 46.6562C188.524 46.6354 188.691 46.625 188.857 46.625C189.295 46.625 189.597 46.7396 189.764 46.9688C189.951 47.1979 190.045 47.5208 190.045 47.9375C190.045 48.2292 190.024 48.5 189.982 48.75C189.962 49 189.899 49.25 189.795 49.5C189.649 49.9167 189.41 50.2188 189.076 50.4062C188.743 50.5938 188.368 50.7292 187.951 50.8125C187.535 50.875 187.097 50.9062 186.639 50.9062C186.201 50.9062 185.816 50.9167 185.482 50.9375C184.607 50.9792 183.743 51.0104 182.889 51.0312C182.055 51.0521 181.212 51.0833 180.357 51.125C180.378 51.5625 180.41 52.2188 180.451 53.0938C180.493 53.9688 180.535 54.9583 180.576 56.0625C180.639 57.1458 180.701 58.2708 180.764 59.4375C180.847 60.6042 180.93 61.7083 181.014 62.75C181.097 63.7708 181.191 64.6667 181.295 65.4375C181.399 66.2083 181.503 66.7292 181.607 67C181.837 67.4375 182.097 67.7292 182.389 67.875C182.68 68 183.066 68.0625 183.545 68.0625C184.316 68.0625 185.128 67.9167 185.982 67.625C186.837 67.3125 187.67 66.9271 188.482 66.4688C189.295 65.9896 190.066 65.4688 190.795 64.9062C191.545 64.3438 192.191 63.7917 192.732 63.25C192.962 63.0625 193.191 62.875 193.42 62.6875C193.649 62.4792 193.92 62.375 194.232 62.375C194.545 62.375 194.847 62.4688 195.139 62.6562C195.43 62.8438 195.691 63.0833 195.92 63.375C196.149 63.6458 196.326 63.9479 196.451 64.2812C196.597 64.6146 196.67 64.9167 196.67 65.1875ZM227.919 62.125C227.919 63.6667 227.669 65.125 227.169 66.5C226.669 67.875 225.95 69.0833 225.012 70.125C224.096 71.1458 222.981 71.9583 221.669 72.5625C220.356 73.1875 218.898 73.5 217.294 73.5C215.877 73.5 214.565 73.2708 213.356 72.8125C212.169 72.375 211.137 71.75 210.262 70.9375C209.387 70.125 208.7 69.1354 208.2 67.9688C207.721 66.8021 207.481 65.5 207.481 64.0625C207.481 63.7708 207.492 63.4062 207.512 62.9688C207.533 62.5312 207.596 62.1146 207.7 61.7188C207.825 61.3021 207.992 60.9583 208.2 60.6875C208.429 60.3958 208.752 60.25 209.169 60.25C209.502 60.25 209.867 60.3229 210.262 60.4688C210.679 60.5938 211.065 60.7708 211.419 61C211.773 61.2292 212.065 61.5104 212.294 61.8438C212.544 62.1562 212.669 62.5 212.669 62.875V64.6875C212.669 66.125 213.054 67.3021 213.825 68.2188C214.617 69.1146 215.752 69.5625 217.231 69.5625C218.273 69.5625 219.169 69.3229 219.919 68.8438C220.669 68.3646 221.273 67.75 221.731 67C222.21 66.25 222.554 65.4167 222.762 64.5C222.992 63.5625 223.106 62.6458 223.106 61.75C223.106 60 222.742 58.3021 222.012 56.6562C221.304 55.0104 220.408 53.4062 219.325 51.8438C218.242 50.2604 217.065 48.7083 215.794 47.1875C214.523 45.6667 213.346 44.1562 212.262 42.6562C211.179 41.1562 210.273 39.6562 209.544 38.1562C208.835 36.6562 208.481 35.125 208.481 33.5625C208.481 32.2917 208.731 31.1979 209.231 30.2812C209.752 29.3438 210.429 28.5833 211.262 28C212.117 27.3958 213.075 26.9583 214.137 26.6875C215.221 26.3958 216.335 26.25 217.481 26.25C218.877 26.25 220.127 26.4479 221.231 26.8438C222.335 27.2396 223.273 27.8125 224.044 28.5625C224.815 29.3125 225.398 30.2396 225.794 31.3438C226.21 32.4271 226.419 33.6667 226.419 35.0625C226.419 35.2708 226.408 35.5312 226.387 35.8438C226.367 36.1562 226.315 36.4688 226.231 36.7812C226.148 37.0729 226.023 37.3333 225.856 37.5625C225.69 37.7708 225.46 37.875 225.169 37.875C224.752 37.875 224.335 37.7708 223.919 37.5625C223.565 37.375 223.273 37.1979 223.044 37.0312C222.835 36.8438 222.669 36.6458 222.544 36.4375C222.419 36.2083 222.325 35.9583 222.262 35.6875C222.2 35.4167 222.148 35.0833 222.106 34.6875C222.002 33.9375 221.867 33.2604 221.7 32.6562C221.533 32.0521 221.283 31.5417 220.95 31.125C220.617 30.7083 220.179 30.3854 219.637 30.1562C219.096 29.9271 218.398 29.8125 217.544 29.8125C216.94 29.8125 216.356 29.875 215.794 30C215.252 30.125 214.773 30.3333 214.356 30.625C213.96 30.9167 213.637 31.3021 213.387 31.7812C213.158 32.2396 213.044 32.8125 213.044 33.5C213.044 34.4583 213.252 35.4375 213.669 36.4375C214.106 37.4375 214.669 38.4583 215.356 39.5C216.065 40.5417 216.856 41.6146 217.731 42.7188C218.627 43.8021 219.544 44.9271 220.481 46.0938C221.419 47.2604 222.325 48.4688 223.2 49.7188C224.096 50.9479 224.887 52.2292 225.575 53.5625C226.283 54.8958 226.846 56.2812 227.262 57.7188C227.7 59.1354 227.919 60.6042 227.919 62.125ZM253.527 65.1875C253.527 65.5417 253.382 65.8854 253.09 66.2188C252.819 66.5521 252.486 66.875 252.09 67.1875C251.694 67.5 251.288 67.7917 250.871 68.0625C250.455 68.3125 250.111 68.5208 249.84 68.6875C249.132 69.1458 248.423 69.5729 247.715 69.9688C247.027 70.3646 246.309 70.7083 245.559 71C244.83 71.2917 244.069 71.5208 243.277 71.6875C242.507 71.8542 241.694 71.9375 240.84 71.9375L240.34 72C239.652 72 238.965 71.9271 238.277 71.7812C237.611 71.6146 236.986 71.375 236.402 71.0625C235.819 70.7292 235.298 70.3125 234.84 69.8125C234.382 69.3125 234.027 68.7083 233.777 68C233.59 67.4375 233.444 66.7708 233.34 66C233.236 65.2292 233.152 64.4271 233.09 63.5938C233.048 62.7604 233.007 61.9479 232.965 61.1562C232.944 60.3438 232.923 59.625 232.902 59C232.59 52.625 232.34 46.25 232.152 39.875C232.111 39.1458 232.08 38.4167 232.059 37.6875C232.038 36.9583 232.027 36.2292 232.027 35.5C232.027 34.25 232.1 33.1875 232.246 32.3125C232.392 31.4375 232.684 30.7188 233.121 30.1562C233.559 29.5938 234.184 29.1875 234.996 28.9375C235.83 28.6875 236.923 28.5625 238.277 28.5625C239.632 28.5625 240.986 28.5729 242.34 28.5938C243.715 28.6146 245.09 28.625 246.465 28.625C246.882 28.625 247.298 28.6146 247.715 28.5938C248.132 28.5521 248.548 28.5833 248.965 28.6875C249.215 28.7292 249.434 28.8021 249.621 28.9062C249.809 28.9896 249.902 29.1875 249.902 29.5C249.902 30.25 249.652 30.8125 249.152 31.1875C248.652 31.5417 248.059 31.7812 247.371 31.9062C246.684 32.0312 245.965 32.0938 245.215 32.0938C244.486 32.0729 243.882 32.0625 243.402 32.0625H239.34C238.923 32.0625 238.507 32.0625 238.09 32.0625C237.673 32.0625 237.257 32.0833 236.84 32.125C236.715 32.4375 236.632 32.7604 236.59 33.0938C236.548 33.4271 236.527 33.7708 236.527 34.125C236.527 36.3958 236.58 38.6354 236.684 40.8438C236.809 43.0521 236.923 45.2917 237.027 47.5625C238.319 47.4583 239.6 47.3333 240.871 47.1875C242.142 47.0417 243.423 46.875 244.715 46.6875C244.902 46.6875 245.069 46.6771 245.215 46.6562C245.382 46.6354 245.548 46.625 245.715 46.625C246.152 46.625 246.455 46.7396 246.621 46.9688C246.809 47.1979 246.902 47.5208 246.902 47.9375C246.902 48.2292 246.882 48.5 246.84 48.75C246.819 49 246.757 49.25 246.652 49.5C246.507 49.9167 246.267 50.2188 245.934 50.4062C245.6 50.5938 245.225 50.7292 244.809 50.8125C244.392 50.875 243.955 50.9062 243.496 50.9062C243.059 50.9062 242.673 50.9167 242.34 50.9375C241.465 50.9792 240.6 51.0104 239.746 51.0312C238.913 51.0521 238.069 51.0833 237.215 51.125C237.236 51.5625 237.267 52.2188 237.309 53.0938C237.35 53.9688 237.392 54.9583 237.434 56.0625C237.496 57.1458 237.559 58.2708 237.621 59.4375C237.705 60.6042 237.788 61.7083 237.871 62.75C237.955 63.7708 238.048 64.6667 238.152 65.4375C238.257 66.2083 238.361 66.7292 238.465 67C238.694 67.4375 238.955 67.7292 239.246 67.875C239.538 68 239.923 68.0625 240.402 68.0625C241.173 68.0625 241.986 67.9167 242.84 67.625C243.694 67.3125 244.527 66.9271 245.34 66.4688C246.152 65.9896 246.923 65.4688 247.652 64.9062C248.402 64.3438 249.048 63.7917 249.59 63.25C249.819 63.0625 250.048 62.875 250.277 62.6875C250.507 62.4792 250.777 62.375 251.09 62.375C251.402 62.375 251.705 62.4688 251.996 62.6562C252.288 62.8438 252.548 63.0833 252.777 63.375C253.007 63.6458 253.184 63.9479 253.309 64.2812C253.455 64.6146 253.527 64.9167 253.527 65.1875ZM277.48 65.1875C277.48 65.5417 277.334 65.8854 277.042 66.2188C276.772 66.5521 276.438 66.875 276.042 67.1875C275.647 67.5 275.24 67.7917 274.824 68.0625C274.407 68.3125 274.063 68.5208 273.792 68.6875C273.084 69.1458 272.376 69.5729 271.667 69.9688C270.98 70.3646 270.261 70.7083 269.511 71C268.782 71.2917 268.022 71.5208 267.23 71.6875C266.459 71.8542 265.647 71.9375 264.792 71.9375L264.292 72C263.605 72 262.917 71.9271 262.23 71.7812C261.563 71.6146 260.938 71.375 260.355 71.0625C259.772 70.7292 259.251 70.3125 258.792 69.8125C258.334 69.3125 257.98 68.7083 257.73 68C257.542 67.4375 257.397 66.7708 257.292 66C257.188 65.2292 257.105 64.4271 257.042 63.5938C257.001 62.7604 256.959 61.9479 256.917 61.1562C256.897 60.3438 256.876 59.625 256.855 59C256.542 52.625 256.292 46.25 256.105 39.875C256.063 39.1458 256.032 38.4167 256.011 37.6875C255.99 36.9583 255.98 36.2292 255.98 35.5C255.98 34.25 256.053 33.1875 256.199 32.3125C256.345 31.4375 256.636 30.7188 257.074 30.1562C257.511 29.5938 258.136 29.1875 258.949 28.9375C259.782 28.6875 260.876 28.5625 262.23 28.5625C263.584 28.5625 264.938 28.5729 266.292 28.5938C267.667 28.6146 269.042 28.625 270.417 28.625C270.834 28.625 271.251 28.6146 271.667 28.5938C272.084 28.5521 272.501 28.5833 272.917 28.6875C273.167 28.7292 273.386 28.8021 273.574 28.9062C273.761 28.9896 273.855 29.1875 273.855 29.5C273.855 30.25 273.605 30.8125 273.105 31.1875C272.605 31.5417 272.011 31.7812 271.324 31.9062C270.636 32.0312 269.917 32.0938 269.167 32.0938C268.438 32.0729 267.834 32.0625 267.355 32.0625H263.292C262.876 32.0625 262.459 32.0625 262.042 32.0625C261.626 32.0625 261.209 32.0833 260.792 32.125C260.667 32.4375 260.584 32.7604 260.542 33.0938C260.501 33.4271 260.48 33.7708 260.48 34.125C260.48 36.3958 260.532 38.6354 260.636 40.8438C260.761 43.0521 260.876 45.2917 260.98 47.5625C262.272 47.4583 263.553 47.3333 264.824 47.1875C266.095 47.0417 267.376 46.875 268.667 46.6875C268.855 46.6875 269.022 46.6771 269.167 46.6562C269.334 46.6354 269.501 46.625 269.667 46.625C270.105 46.625 270.407 46.7396 270.574 46.9688C270.761 47.1979 270.855 47.5208 270.855 47.9375C270.855 48.2292 270.834 48.5 270.792 48.75C270.772 49 270.709 49.25 270.605 49.5C270.459 49.9167 270.22 50.2188 269.886 50.4062C269.553 50.5938 269.178 50.7292 268.761 50.8125C268.345 50.875 267.907 50.9062 267.449 50.9062C267.011 50.9062 266.626 50.9167 266.292 50.9375C265.417 50.9792 264.553 51.0104 263.699 51.0312C262.865 51.0521 262.022 51.0833 261.167 51.125C261.188 51.5625 261.22 52.2188 261.261 53.0938C261.303 53.9688 261.345 54.9583 261.386 56.0625C261.449 57.1458 261.511 58.2708 261.574 59.4375C261.657 60.6042 261.74 61.7083 261.824 62.75C261.907 63.7708 262.001 64.6667 262.105 65.4375C262.209 66.2083 262.313 66.7292 262.417 67C262.647 67.4375 262.907 67.7292 263.199 67.875C263.49 68 263.876 68.0625 264.355 68.0625C265.126 68.0625 265.938 67.9167 266.792 67.625C267.647 67.3125 268.48 66.9271 269.292 66.4688C270.105 65.9896 270.876 65.4688 271.605 64.9062C272.355 64.3438 273.001 63.7917 273.542 63.25C273.772 63.0625 274.001 62.875 274.23 62.6875C274.459 62.4792 274.73 62.375 275.042 62.375C275.355 62.375 275.657 62.4688 275.949 62.6562C276.24 62.8438 276.501 63.0833 276.73 63.375C276.959 63.6458 277.136 63.9479 277.261 64.2812C277.407 64.6146 277.48 64.9167 277.48 65.1875ZM301.776 71.5C301.776 71.7917 301.641 72.0417 301.37 72.25C301.099 72.4583 300.776 72.625 300.401 72.75C300.026 72.875 299.641 72.9688 299.245 73.0312C298.87 73.0938 298.568 73.125 298.339 73.125C298.276 73.125 298.224 73.1354 298.182 73.1562C298.141 73.1771 298.089 73.1667 298.026 73.125C297.61 73.0417 297.245 72.8958 296.932 72.6875C296.62 72.5 296.339 72.2708 296.089 72C295.839 71.75 295.599 71.4688 295.37 71.1562C295.141 70.8438 294.901 70.5208 294.651 70.1875C292.985 68.0833 291.412 65.9271 289.932 63.7188C288.474 61.4896 287.151 59.1458 285.964 56.6875L285.589 57.125V69.1875C285.589 69.4167 285.578 69.6771 285.557 69.9688C285.537 70.2396 285.485 70.5 285.401 70.75C285.318 71 285.193 71.2083 285.026 71.375C284.86 71.5417 284.63 71.625 284.339 71.625C283.672 71.625 283.12 71.5208 282.682 71.3125C282.266 71.1042 281.932 70.8229 281.682 70.4688C281.453 70.0938 281.297 69.6562 281.214 69.1562C281.13 68.6562 281.089 68.1042 281.089 67.5C281.089 65.5417 281.068 63.5938 281.026 61.6562C280.985 59.7188 280.964 57.7708 280.964 55.8125C280.964 54.9583 280.995 54.125 281.057 53.3125C281.12 52.5 281.151 51.6667 281.151 50.8125C281.151 47.8333 281.037 44.875 280.807 41.9375C280.578 38.9792 280.339 36.0208 280.089 33.0625C280.026 32.375 279.953 31.6875 279.87 31C279.807 30.3125 279.776 29.625 279.776 28.9375C279.776 28.4375 279.943 28.1042 280.276 27.9375C280.61 27.7708 280.964 27.6875 281.339 27.6875C282.505 27.6875 283.422 27.9271 284.089 28.4062C284.755 28.8854 285.089 29.75 285.089 31C285.089 32.8958 285.151 34.75 285.276 36.5625C285.38 38.8333 285.443 41.0833 285.464 43.3125C285.505 45.5417 285.547 47.7917 285.589 50.0625C287.839 47.25 289.61 44.2292 290.901 41C292.193 37.75 293.172 34.3542 293.839 30.8125C293.86 30.6042 293.891 30.3438 293.932 30.0312C293.995 29.7188 294.068 29.4167 294.151 29.125C294.255 28.8125 294.391 28.5521 294.557 28.3438C294.745 28.1146 294.985 28 295.276 28C295.61 28 295.953 28.0625 296.307 28.1875C296.662 28.2917 296.974 28.4479 297.245 28.6562C297.537 28.8646 297.766 29.1146 297.932 29.4062C298.12 29.6979 298.214 30.0208 298.214 30.375C298.214 31.2917 298.099 32.1771 297.87 33.0312C297.662 33.8854 297.443 34.75 297.214 35.625C296.776 37.3958 296.307 39.0312 295.807 40.5312C295.328 42.0312 294.766 43.4792 294.12 44.875C293.495 46.25 292.766 47.6146 291.932 48.9688C291.099 50.3021 290.11 51.6875 288.964 53.125L290.276 55.75C291.38 57.8542 292.61 59.9062 293.964 61.9062C295.318 63.8854 296.797 65.7708 298.401 67.5625C298.943 68.1667 299.495 68.7292 300.057 69.25C300.641 69.75 301.151 70.3333 301.589 71C301.714 71.125 301.776 71.2917 301.776 71.5ZM301.78 72.0938C301.721 72.0938 301.656 72.0859 301.586 72.0703C301.52 72.0547 301.455 72.0293 301.393 71.9941C301.334 71.959 301.283 71.916 301.24 71.8652C301.201 71.8105 301.182 71.7461 301.182 71.6719C301.182 71.5625 301.186 71.4551 301.194 71.3496C301.205 71.2402 301.217 71.1328 301.229 71.0273V71.0332L301.264 70.6406C301.276 70.5 301.285 70.3457 301.293 70.1777C301.301 70.0098 301.307 69.8398 301.311 69.668C301.319 69.4922 301.324 69.3203 301.328 69.1523C301.332 68.9844 301.334 68.8301 301.334 68.6895C301.334 68.6074 301.332 68.5254 301.328 68.4434C301.328 68.3574 301.328 68.2715 301.328 68.1855C301.324 68.1113 301.322 68.0293 301.322 67.9395C301.322 67.8457 301.322 67.7598 301.322 67.6816C301.322 67.5996 301.332 67.5332 301.352 67.4824C301.375 67.4277 301.438 67.4004 301.539 67.4004C301.629 67.4004 301.723 67.4238 301.821 67.4707C301.922 67.5176 301.992 67.584 302.031 67.6699H302.026C302.045 67.7129 302.059 67.7832 302.067 67.8809C302.078 67.9746 302.086 68.0586 302.09 68.1328C302.156 68.0312 302.231 67.9238 302.313 67.8105C302.399 67.6973 302.49 67.5938 302.588 67.5C302.686 67.4023 302.789 67.3223 302.899 67.2598C303.008 67.1973 303.125 67.166 303.25 67.166C303.414 67.166 303.539 67.207 303.625 67.2891C303.711 67.3711 303.774 67.4746 303.813 67.5996C303.852 67.7207 303.873 67.8516 303.877 67.9922C303.881 68.1289 303.883 68.2539 303.883 68.3672V68.4141C303.883 68.4609 303.881 68.5078 303.877 68.5547C303.877 68.5977 303.869 68.6387 303.854 68.6777C303.842 68.7129 303.819 68.7422 303.783 68.7656C303.752 68.7891 303.707 68.8008 303.649 68.8008C303.586 68.8008 303.52 68.793 303.449 68.7773C303.379 68.7578 303.313 68.7305 303.25 68.6953C303.192 68.6602 303.141 68.6172 303.098 68.5664C303.055 68.5117 303.031 68.4492 303.028 68.3789C303.028 68.3477 303.028 68.3164 303.028 68.2852C303.028 68.2539 303.03 68.2227 303.033 68.1914C303.033 68.1719 303.033 68.1484 303.033 68.1211C303.037 68.0898 303.039 68.0605 303.039 68.0332C302.914 68.1582 302.803 68.3125 302.705 68.4961C302.612 68.6797 302.526 68.875 302.447 69.082C302.373 69.2891 302.309 69.498 302.254 69.709C302.199 69.916 302.153 70.1035 302.114 70.2715V70.2891C302.102 70.4102 302.094 70.5293 302.09 70.6465C302.086 70.7637 302.082 70.8848 302.078 71.0098C302.074 71.1504 302.069 71.293 302.061 71.4375C302.057 71.582 302.047 71.7227 302.031 71.8594C302.024 71.9336 302 71.9902 301.961 72.0293C301.926 72.0723 301.865 72.0938 301.78 72.0938Z" fill="url(#paint1_linear_320_30)"/>
<defs>
<linearGradient id="paint0_linear_320_30" x1="20" y1="18" x2="84" y2="82" gradientUnits="userSpaceOnUse">
<stop stop-color="#00B1E9"/>
<stop offset="1" stop-color="#5F00AA"/>
</linearGradient>
<linearGradient id="paint1_linear_320_30" x1="100.5" y1="-37" x2="201" y2="91" gradientUnits="userSpaceOnUse">
<stop stop-color="#08A3E4"/>
<stop offset="1" stop-color="#580FAF"/>
</linearGradient>
</defs>
</svg>
